#!OML:ASF H:\LiuWeirdWalks\Patient Classification 1\Patient 1\Session 1\male.ASF
:FULLY-SPECIFIED
:DEGREES
503
root 1.86359 18.1822 7.96527 -1.3494 1.61901 1.87128
lowerback 5.34153 -0.0709416 -3.45978
upperback -1.37628 -0.266742 1.65987
thorax -4.40353 -0.016377 3.69335
lowerneck -18.4942 1.18803 4.49308
upperneck 26.3843 1.95583 -5.6967
head 11.8104 0.594868 -2.58882
rclavicle -7.0817e-015 -2.38542e-015
rhumerus -42.9118 -11.6883 -67.6673
rradius 29.4942
rwrist -4.24937
rhand -15.6934 -1.82078
rfingers 7.12502
rthumb 10.4959 -31.5388
lclavicle -7.0817e-015 -2.38542e-015
lhumerus -44.5153 1.31141 81.6803
lradius 36.6175
lwrist 5.8466
lhand -11.0937 -0.953383
lfingers 7.12502
lthumb 14.9303 28.4885
rfemur -11.6099 -4.75234 16.2248
rtibia 68.9419
rfoot 29.9973 -8.53471
rtoes 12.8581
lfemur -10.0703 -1.13064 -24.9068
ltibia 20.7233
lfoot -9.53668 8.99023
ltoes -22.9539
504
root 1.87361 18.1843 8.09561 -1.43216 1.68621 2.1626
lowerback 5.47524 -0.120411 -3.766
upperback -1.33841 -0.36125 1.59992
thorax -4.43074 -0.0559668 3.81369
lowerneck -18.4779 1.23602 4.54366
upperneck 26.4144 2.02581 -5.74945
head 11.8244 0.624727 -2.60725
rclavicle -1.09083e-014 2.14687e-014
rhumerus -42.8338 -11.8441 -67.6716
rradius 29.4772
rwrist -4.30605
rhand -15.7622 -1.78358
rfingers 7.12502
rthumb 10.4295 -31.5049
lclavicle -1.09083e-014 2.14687e-014
lhumerus -44.3974 1.25489 81.6587
lradius 36.5441
lwrist 5.85237
lhand -11.099 -1.00707
lfingers 7.12502
lthumb 14.9251 28.4352
rfemur -13.0119 -4.97312 15.7917
rtibia 70.6306
rfoot 28.5531 -8.88497
rtoes 12.9682
lfemur -9.33776 -1.2605 -25.3123
ltibia 20.4159
lfoot -9.51123 9.28123
ltoes -22.731
505
root 1.88278 18.1864 8.22527 -1.50641 1.75933 2.34531
lowerback 5.59809 -0.172404 -3.95923
upperback -1.30222 -0.450121 1.5683
thorax -4.45362 -0.0954521 3.89931
lowerneck -18.4754 1.27843 4.5823
upperneck 26.4263 2.08792 -5.79398
head 11.8335 0.650717 -2.62138
rclavicle 6.93262e-015 -4.77083e-015
rhumerus -42.7619 -12.0082 -67.6737
rradius 29.4599
rwrist -4.38931
rhand -15.8202 -1.72603
rfingers 7.12502
rthumb 10.3736 -31.4501
lclavicle 6.93262e-015 -4.77083e-015
lhumerus -44.2767 1.20157 81.6284
lradius 36.4858
lwrist 5.85576
lhand -11.0706 -1.0173
lfingers 7.12502
lthumb 14.9524 28.423
rfemur -14.3785 -5.17908 15.505
rtibia 72.1475
rfoot 26.4704 -8.97629
rtoes 13.1096
lfemur -8.66078 -1.41175 -25.5979
ltibia 20.1858
lfoot -9.52359 9.58365
ltoes -22.5522
506
root 1.89128 18.1883 8.35395 -1.56857 1.84385 2.44671
lowerback 5.70574 -0.232092 -4.06765
upperback -1.26368 -0.541939 1.55768
thorax -4.46494 -0.138711 3.95913
lowerneck -18.4909 1.3234 4.63227
upperneck 26.4381 2.15166 -5.84629
head 11.8466 0.677335 -2.64023
rclavicle 1.33061e-014 -1.11319e-014
rhumerus -42.6971 -12.1248 -67.7137
rradius 29.4848
rwrist -4.53354
rhand -15.8593 -1.66448
rfingers 7.12502
rthumb 10.3359 -31.3905
lclavicle 1.33061e-014 -1.11319e-014
lhumerus -44.1365 1.14333 81.5938
lradius 36.4252
lwrist 5.84281
lhand -11.0553 -1.03701
lfingers 7.12502
lthumb 14.9672 28.4021
rfemur -15.7192 -5.36944 15.3301
rtibia 73.4753
rfoot 23.8845 -8.94079
rtoes 12.9153
lfemur -8.03496 -1.58871 -25.7957
ltibia 20.0137
lfoot -9.57421 9.8945
ltoes -22.4142
507
root 1.90001 18.1899 8.48257 -1.62631 1.93605 2.51628
lowerback 5.80432 -0.296105 -4.12971
upperback -1.22491 -0.635654 1.55303
thorax -4.47063 -0.184226 3.99917
lowerneck -18.4952 1.36703 4.67185
upperneck 26.4028 2.21299 -5.8911
head 11.8389 0.702964 -2.65362
rclavicle -1.23992e-014 2.70347e-014
rhumerus -42.6415 -12.2099 -67.7703
rradius 29.5245
rwrist -4.68727
rhand -15.882 -1.61292
rfingers 7.12502
rthumb 10.314 -31.34
lclavicle -1.23992e-014 2.70347e-014
lhumerus -44.0032 1.08297 81.5599
lradius 36.4019
lwrist 5.85877
lhand -11.0259 -0.979868
lfingers 7.12502
lthumb 14.9956 28.4572
rfemur -17.0192 -5.53739 15.1981
rtibia 74.595
rfoot 21.0502 -8.9348
rtoes 12.2941
lfemur -7.43325 -1.78788 -25.9639
ltibia 19.8772
lfoot -9.65654 10.2094
ltoes -22.3148
508
root 1.9086 18.1908 8.61085 -1.67893 2.03995 2.59433
lowerback 5.90303 -0.359517 -4.19352
upperback -1.18767 -0.728918 1.54632
thorax -4.47781 -0.229436 4.03819
lowerneck -18.5128 1.40384 4.6955
upperneck 26.365 2.26626 -5.92669
head 11.8321 0.724374 -2.66202
rclavicle -1.77788e-014 7.95139e-015
rhumerus -42.5827 -12.2649 -67.8401
rradius 29.5744
rwrist -4.85901
rhand -15.8752 -1.59205
rfingers 7.12502
rthumb 10.3205 -31.3188
lclavicle -1.77788e-014 7.95139e-015
lhumerus -43.8612 1.028 81.5281
lradius 36.3793
lwrist 5.83865
lhand -11.0061 -0.932422
lfingers 7.12502
lthumb 15.0147 28.5032
rfemur -18.2796 -5.68057 15.0638
rtibia 75.502
rfoot 18.1484 -9.06602
rtoes 11.1575
lfemur -6.8491 -2.00636 -26.1448
ltibia 19.765
lfoot -9.76671 10.5173
ltoes -22.2421
509
root 1.91686 18.1903 8.73821 -1.72534 2.15192 2.69458
lowerback 6.00701 -0.421267 -4.27551
upperback -1.15788 -0.822059 1.53326
thorax -4.49549 -0.273769 4.08122
lowerneck -18.5014 1.43161 4.70749
upperneck 26.2999 2.30887 -5.9577
head 11.808 0.74086 -2.66756
rclavicle -1.12313e-014 -3.97569e-015
rhumerus -42.5391 -12.3041 -67.9092
rradius 29.6255
rwrist -4.97491
rhand -15.8443 -1.5705
rfingers 7.12502
rthumb 10.3504 -31.2958
lclavicle -1.12313e-014 -3.97569e-015
lhumerus -43.7258 0.958082 81.5075
lradius 36.3749
lwrist 5.83021
lhand -11.0065 -0.876804
lfingers 7.12502
lthumb 15.0143 28.5588
rfemur -19.5056 -5.79409 14.913
rtibia 76.1992
rfoot 15.3675 -9.36726
rtoes 9.8217
lfemur -6.2822 -2.23881 -26.3507
ltibia 19.6683
lfoot -9.87923 10.7977
ltoes -22.1317
510
root 1.92429 18.1882 8.86471 -1.76842 2.25919 2.80421
lowerback 6.10461 -0.473372 -4.37036
upperback -1.12527 -0.903173 1.52045
thorax -4.50745 -0.311991 4.13068
lowerneck -18.5151 1.45839 4.71278
upperneck 26.2607 2.35096 -5.98395
head 11.7988 0.756707 -2.67096
rclavicle 1.59773e-014 -1.27222e-014
rhumerus -42.5024 -12.3164 -67.9873
rradius 29.6926
rwrist -5.06716
rhand -15.7967 -1.59347
rfingers 7.12502
rthumb 10.3962 -31.3165
lclavicle 1.59773e-014 -1.27222e-014
lhumerus -43.5772 0.876464 81.501
lradius 36.3808
lwrist 5.83623
lhand -11.0215 -0.835536
lfingers 7.12502
lthumb 14.9998 28.6012
rfemur -20.695 -5.8663 14.766
rtibia 76.6918
rfoot 12.7468 -9.80349
rtoes 8.3699
lfemur -5.73124 -2.47941 -26.5642
ltibia 19.5923
lfoot -9.99457 11.0728
ltoes -22.0357
511
root 1.93118 18.1843 8.99084 -1.81317 2.35095 2.93489
lowerback 6.19742 -0.513212 -4.48405
upperback -1.09822 -0.969669 1.50261
thorax -4.52365 -0.342301 4.18427
lowerneck -18.4566 1.48552 4.75022
upperneck 26.1565 2.39416 -6.04707
head 11.751 0.772745 -2.69174
rclavicle 3.67752e-015 -4.77083e-015
rhumerus -42.4963 -12.3012 -68.065
rradius 29.7729
rwrist -5.12426
rhand -15.7338 -1.67249
rfingers 7.12502
rthumb 10.457 -31.3924
lclavicle 3.67752e-015 -4.77083e-015
lhumerus -43.4354 0.797282 81.4947
lradius 36.3748
lwrist 5.80612
lhand -11.0592 -0.861569
lfingers 7.12502
lthumb 14.9635 28.5779
rfemur -21.8382 -5.89381 14.6067
rtibia 76.9856
rfoot 10.2355 -10.3125
rtoes 6.85234
lfemur -5.19395 -2.70899 -26.7984
ltibia 19.5467
lfoot -10.1206 11.3424
ltoes -21.9453
512
root 1.9373 18.1786 9.11656 -1.85977 2.44168 3.06784
lowerback 6.29717 -0.548062 -4.60691
upperback -1.07343 -1.03064 1.48835
thorax -4.54633 -0.369337 4.24659
lowerneck -18.4191 1.50748 4.77198
upperneck 26.0912 2.43225 -6.09809
head 11.7218 0.786149 -2.70708
rclavicle -1.51822e-014 6.36111e-015
rhumerus -42.5067 -12.208 -68.1717
rradius 29.8833
rwrist -5.20149
rhand -15.6657 -1.77665
rfingers 7.12502
rthumb 10.5227 -31.4933
lclavicle -1.51822e-014 6.36111e-015
lhumerus -43.2966 0.710644 81.4979
lradius 36.3658
lwrist 5.77398
lhand -11.1265 -0.957101
lfingers 7.12502
lthumb 14.8986 28.4871
rfemur -22.9302 -5.89767 14.4588
rtibia 77.0852
rfoot 7.824 -10.8557
rtoes 5.36355
lfemur -4.67147 -2.91964 -27.0295
ltibia 19.5334
lfoot -10.2757 11.6013
ltoes -21.9143
513
root 1.94228 18.1715 9.24218 -1.90186 2.52941 3.18854
lowerback 6.39565 -0.583021 -4.73186
upperback -1.04939 -1.09181 1.48092
thorax -4.56866 -0.396311 4.31739
lowerneck -18.3934 1.53147 4.7998
upperneck 26.0103 2.47161 -6.15447
head 11.6893 0.79992 -2.72493
rclavicle -9.51682e-015 3.97569e-015
rhumerus -42.5037 -12.0735 -68.2994
rradius 29.9809
rwrist -5.26613
rhand -15.606 -1.86057
rfingers 7.12502
rthumb 10.5802 -31.5743
lclavicle -9.51682e-015 3.97569e-015
lhumerus -43.1617 0.65013 81.4895
lradius 36.371
lwrist 5.7414
lhand -11.1992 -1.04693
lfingers 7.12502
lthumb 14.8286 28.4025
rfemur -23.972 -5.87467 14.3434
rtibia 76.9886
rfoot 5.49808 -11.4384
rtoes 3.90749
lfemur -4.17072 -3.10307 -27.238
ltibia 19.5503
lfoot -10.4525 11.8473
ltoes -21.9396
